<svg xmlns="http://www.w3.org/2000/svg" viewBox="0 0 30 19.974">
    <defs>
        <style>
            .a{fill:transparent; stroke: currentColor;stroke-width:1;}
        </style>
    </defs>
    <path d="M29.992,10.615c0-.012.005-.024.006-.036a.527.527,0,0,0,0-.112c0-.009,0-.018,0-.028a.5.5,0,0,0-.05-.144c0-.008-.009-.015-.014-.023s0,0,0,0l0,0-.01-.016a.493.493,0,0,0-.11-.115c-.009-.007-.02-.011-.03-.017a.479.479,0,0,0-.118-.058.431.431,0,0,0-.056-.012.483.483,0,0,0-.111-.01.468.468,0,0,0-.059,0c-.013,0-.025,0-.038,0L.4,16.034a.5.5,0,0,0-.132.931l8.307,4.382,1.457,8.085c0,.006,0,.012,0,.018a.47.47,0,0,0,0,.118.461.461,0,0,0,.01.058.482.482,0,0,0,.055.134c0,.008,0,.017.01.025l.006.006c.006.009.015.017.023.026a.51.51,0,0,0,.076.078s.007.009.012.012.016.007.023.012a.509.509,0,0,0,.1.049c.013,0,.026.011.04.015a.5.5,0,0,0,.138.022h.033a.5.5,0,0,0,.356-.157l5.534-3.689,5.794,3.766a.5.5,0,0,0,.741-.247l6.991-18.975a.458.458,0,0,0,.016-.052c0-.007,0-.015,0-.022S29.991,10.621,29.992,10.615ZM24.207,13.8,12.223,22.614a.486.486,0,0,0-.052.049.206.206,0,0,0-.018.017c-.01.011-.02.023-.029.035s-.016.024-.024.037a.511.511,0,0,0-.046.094c0,.006-.006.011-.008.018s0,0,0,0l-1.374,4.464L9.58,21.3ZM11.442,28.3,12.8,23.8l2.12,1.378.606.394-2.06,1.373ZM26,11.765,9.026,20.456,1.964,16.731ZM22.257,28.75l-7.695-5L13.4,22.992,28.458,11.917Z" class="a" transform="translate(0 -10.035)"/>
</svg>
