<?xml version="1.0" encoding="iso-8859-1"?>
<!--Generator: Adobe Illustrator 19.1.0, SVG Export Plug-In . SVG Version: 6.00 Build 0)-->
<svg xmlns="http://www.w3.org/2000/svg" xmlns:xlink="http://www.w3.org/1999/xlink" id="Capa_1" x="0px" y="0px" style="enable-background:new 0 0 64 64" version="1.1" viewBox="0 0 64 64" xml:space="preserve">
    <defs>
        <style>
            .a{fill:#34363b;}
        </style>
    </defs>
    <g>
        <g>
            <path d="M53.861,0H10.139l-6,40H4v24h56V40h-0.139L53.861,0z M11.861,2h40.277l5.7,38H6.161L11.861,2z M58,62H6V42h52V62z" class="a"/>
            <path d="M48,56c2.206,0,4-1.794,4-4s-1.794-4-4-4s-4,1.794-4,4S45.794,56,48,56z M48,50c1.103,0,2,0.897,2,2s-0.897,2-2,2
			s-2-0.897-2-2S46.897,50,48,50z" class="a"/>
            <polygon points="31.291,11 23.291,19.146 24.706,20.634 31,14.414 31,32 33,32 33,14.414 39.292,20.707 40.705,19.146 32.705,11 
					"/>
        </g>
    </g>
</svg>
