<svg xmlns="http://www.w3.org/2000/svg"  viewBox="0 0 33.119 41.97"><defs><style>.a{fill:none;stroke:#f67280;stroke-linecap:round;stroke-linejoin:round;stroke-width:2px;}</style></defs><g transform="translate(1.019 1)"><path class="a" d="M28.364,1.827c-2.965-2.387-7.953-2.489-9.833,0a4.6,4.6,0,0,0-.837,2.749C12.13,2,7.78,1.5,6.306,3.317a3.162,3.162,0,0,0-.613,2c-2.3.879-4.036,2.209-4.6,3.762-1.43,3.9,4.487,9.535,2.608,11.472C2.725,21.563.412,20.788.048,21.83c-.244.7.565,1.728,1.111,2.222.784.71,1.256.531,1.562,1C3.532,26.3.876,28.585,1.484,29.573c.883,1.446,6.952-.6,7-.424s-6.823,1.81-6.812,3.771c0,.579.606.766.914,1.788.382,1.265-.629,1.867-.463,3.282.03.253.191,1.622.939,1.944,1.495.649,3.206-3.784,7.03-4.443,2.364-.407,3.073,1.052,5.261.8,3.746-.424,6.08-5.2,6.962-7A31.713,31.713,0,0,0,23.626,26.1c1.065.418,2.134.432,2.454.015.481-.63-1.144-1.706-1.111-3.651.045-2.693,3.206-3.73,2.839-5.419A3.188,3.188,0,0,0,25.3,15.109a7.947,7.947,0,0,0,5.745-6.651A7.547,7.547,0,0,0,28.364,1.827ZM15.218,17.2c-.058.086-1.728-1.654-3.842-1.482a5.122,5.122,0,0,0-3.289,1.9A4.63,4.63,0,0,1,11.413,15.2,4.45,4.45,0,0,1,15.218,17.2Z" transform="translate(-0.003 0.002)"/></g></svg>
