<svg xmlns="http://www.w3.org/2000/svg" viewBox="0 0 32.07 14.99">
    <defs>
        <style>
            .cls-2{font-size:13px;font-family:Quicksand-Bold, Quicksand;font-weight:700;}
        </style>
    </defs>
    <title>
        Asha
    </title>
    <g id="Layer_2" data-name="Layer 2">
        <g id="Layer_1-2" data-name="Layer 1">
            <path d="M9.33,8,6.55,3.21a2,2,0,0,0-3.49,0L.27,8a2,2,0,0,0,1.74,3H4L4.3,5.82a.51.51,0,0,1,1,0l.28,5.23h2A2,2,0,0,0,9.33,8ZM5.24,4.47H4.36a.18.18,0,0,1-.15-.26l.44-.76a.17.17,0,0,1,.3,0l.44.76A.17.17,0,0,1,5.24,4.47Z" class="cls-1"/>
            <text class="cls-2" transform="translate(10.08 11.05)">
                sha
            </text>
        </g>
    </g>
</svg>
